<svg xmlns="http://www.w3.org/2000/svg" viewBox="0 0 120.81 129.95"><defs><style>.cls-1{fill:#fff;}</style></defs><g id="Calque_2" data-name="Calque 2"><g id="Calque_1-2" data-name="Calque 1"><path class="cls-1" d="M27.66,130Q13.15,130,7,123.81T.44,103.51Q.11,91.72,0,78.5T0,52.07q.07-13.22.4-24.84.48-14.81,6.68-21T27.67,0Q41.2,0,47.41,6.05t7,20.22a175.49,175.49,0,0,1,0,21H37.22q.31-5.4.32-12t-.32-12q-.48-9.08-9.55-9.08-9.55,0-10,9.08Q17,43.16,17,64.88t.63,41.64q.33,9.24,10,9.24,10,0,10.51-9.24.32-4.62.31-10.43t-.31-10.27H28.62V70.71H55.06q.31,6.69.23,15.13t-.39,17.68q-.65,14.17-6.93,20.3T27.66,130Z"/><path class="cls-1" d="M60.94,128.68,76.54,1.29h28.67l15.6,127.39H103.29l-3-31.85H81.64l-3,31.85Zm22.29-47H98.52l-2.71-28-2.7-37.1H88.66L86,53.67Z"/></g></g></svg>