<svg id="Calque_1" data-name="Calque 1" xmlns="http://www.w3.org/2000/svg" viewBox="0 0 531.13 571.2"><defs><style>.cls-1{fill:#0fe;}</style></defs><path class="cls-1" d="M265.25,683.1q-63.7,0-90.65-27t-29-89.25q-1.41-51.79-1.75-109.9t0-116.2q.34-58.1,1.75-109.2,2.1-65.1,29.4-92.4t90.3-27.3q59.49,0,86.8,26.6t30.8,88.9a765.73,765.73,0,0,1,0,92.4h-75.6q1.39-23.79,1.4-52.85t-1.4-52.85q-2.1-39.9-42-39.9-42,0-44.1,39.9-2.81,87.51-2.8,183t2.8,183.05q1.4,40.6,44.1,40.6,44.1,0,46.2-40.6,1.4-20.3,1.4-45.85t-1.4-45.15h-42V422.7h116.2q1.39,29.4,1.05,66.5T385,566.9q-2.81,62.31-30.45,89.25T265.25,683.1Z" transform="translate(-143.62 -111.9)"/><path class="cls-1" d="M411.55,677.5l68.61-560h126l68.59,560h-77l-13.29-140H502.55l-13.3,140Zm98-206.5h67.2L564.86,347.8,553,184.7h-19.6l-11.9,163.1Z" transform="translate(-143.62 -111.9)"/></svg>