<?xml version="1.0" standalone="no"?>
<!DOCTYPE svg PUBLIC "-//W3C//DTD SVG 20010904//EN"
 "http://www.w3.org/TR/2001/REC-SVG-20010904/DTD/svg10.dtd">
<svg version="1.0" xmlns="http://www.w3.org/2000/svg"
 width="700.000000pt" height="700.000000pt" viewBox="0 0 700.000000 700.000000"
 preserveAspectRatio="xMidYMid meet">
<metadata>
Created by potrace 1.11, written by Peter Selinger 2001-2013
</metadata>
<g transform="translate(0.000000,700.000000) scale(0.100000,-0.100000)"
fill="#000000" stroke="none">
<path d="M0 3500 l0 -3500 3500 0 3500 0 0 3500 0 3500 -3500 0 -3500 0 0
-3500z m2535 2510 c538 -61 769 -345 815 -1000 11 -161 13 -638 3 -742 l-6
-68 -327 0 -326 0 4 353 c5 414 -7 636 -38 719 -56 151 -213 227 -415 199
-101 -14 -166 -44 -216 -98 -55 -59 -78 -116 -89 -215 -18 -164 -33 -1351 -26
-2063 9 -906 19 -1212 41 -1290 46 -165 180 -243 400 -233 219 11 338 110 364
303 16 117 24 439 16 648 l-7 197 -184 0 -184 0 0 290 0 290 510 0 510 0 0
-482 c-1 -762 -15 -984 -77 -1198 -48 -168 -136 -312 -242 -397 -189 -152
-531 -225 -903 -193 -547 46 -786 261 -863 777 -25 162 -34 647 -34 1703 0
1620 13 1813 138 2075 117 245 318 373 657 419 120 17 357 19 479 6z m3067
-2465 c163 -1331 297 -2432 297 -2447 l1 -28 -335 0 c-261 0 -335 3 -335 13
-1 6 -27 282 -58 612 l-57 600 -357 3 -357 2 -5 -32 c-3 -18 -29 -276 -56
-573 -28 -297 -53 -559 -56 -583 l-6 -42 -340 0 -339 0 6 33 c5 30 595 4850
595 4862 0 3 249 4 552 3 l553 -3 297 -2420z"/>
<path d="M4666 5348 c-3 -18 -26 -323 -51 -678 -26 -355 -71 -898 -101 -1208
-30 -310 -54 -567 -54 -573 0 -5 118 -9 295 -9 l295 0 -5 28 c-17 98 -113
1191 -155 1767 -27 379 -50 693 -50 697 0 4 -38 8 -85 8 l-84 0 -5 -32z"/>
</g>
</svg>
